<svg width="25" height="27" viewBox="0 0 25 27" fill="none" xmlns="http://www.w3.org/2000/svg">
<g id="Layer_1" clip-path="url(#clip0_615_3520)">
<path id="Vector" d="M1.20398 15.3545C0.7675 15.7003 0.315964 16.0617 0.13535 16.5804C-0.0452639 17.0833 -0.0302127 17.5862 0.165453 18.0734C0.556783 19.0478 1.48996 20.5879 2.10705 21.6252L2.25757 21.8766C2.55859 22.3795 2.78436 22.7724 3.34125 22.9925C4.09381 23.2911 4.74101 23.0082 5.35811 22.7567C5.76449 22.5838 6.18592 22.411 6.62241 22.3953L7.55558 20.7136C7.25456 20.6194 6.93848 20.5565 6.60736 20.5565C6.57725 20.5565 6.54715 20.5565 6.5321 20.5565C6.00531 20.5565 5.52367 20.7608 5.01193 20.9651C4.69586 21.0908 4.37978 21.2166 4.04866 21.2951L3.9433 21.3266L1.73077 17.2719L1.82108 17.1933C2.0017 17.0361 2.18231 16.879 2.36292 16.7218C2.90477 16.266 3.40145 15.8417 3.73258 15.2288C4.22927 14.2701 4.28947 13.1228 3.88309 12.1013C3.53692 11.2526 2.82951 10.6712 2.13716 10.1054L1.82108 9.82249L1.74583 9.64962L3.92825 5.6892H4.0336C4.37978 5.78349 4.69586 5.92494 5.01193 6.05067C5.35811 6.19211 5.68923 6.33355 6.03541 6.39642C7.69104 6.66359 9.36172 5.62633 9.85841 3.99188C9.96377 3.63041 10.024 3.23751 10.0691 2.86033C10.1143 2.57744 10.1444 2.29455 10.2046 2.01167L10.2347 1.88594H14.75L14.7801 2.01167C14.8253 2.24741 14.8704 2.49886 14.9006 2.7346C15.0059 3.39467 15.0962 4.02331 15.4123 4.62051C15.5628 4.9034 15.7735 5.17057 15.9993 5.40631L16.9475 3.69327C16.7518 3.28466 16.6766 2.81318 16.6164 2.35742C16.5562 1.90166 16.496 1.47732 16.3304 1.13157C16.0444 0.534368 15.4273 0.110037 14.7651 0.0628893C13.6062 -0.0314064 11.6043 -0.0314064 10.2949 0.0786052C9.43698 0.141469 8.75967 0.707243 8.53391 1.54019C8.4737 1.79164 8.42855 2.07453 8.38339 2.35742C8.26298 3.25323 8.12752 4.25905 7.04384 4.55765C6.44179 4.71481 5.8849 4.47907 5.34306 4.24333C4.71091 3.97616 4.06371 3.69327 3.2961 4.02331C2.76931 4.24333 2.55859 4.58908 2.25757 5.10771C1.65552 6.09781 0.842755 7.51225 0.300913 8.6438C0.029992 9.22529 -0.0753662 9.6339 0.0901967 10.2625C0.240708 10.8283 0.737397 11.2369 1.20398 11.6298C1.92644 12.227 2.66395 12.84 2.31777 14.0029C2.15221 14.5844 1.67057 14.9773 1.20398 15.3388V15.3545Z" fill="#1E78E2"/>
<path id="Vector_2" d="M23.8108 11.6456C24.157 11.3627 24.5333 11.0641 24.729 10.7026C25.0902 10.074 25.0902 9.46104 24.729 8.67524C24.2323 7.62227 23.4647 6.30213 22.7874 5.15487L22.7422 5.09201C22.5466 4.74625 22.3358 4.4005 22.0198 4.1962C21.1618 3.61471 20.4394 3.92903 19.6868 4.24334C19.3407 4.38479 18.9945 4.52623 18.6332 4.57338L17.6549 6.33357C17.9258 6.39643 18.2118 6.44358 18.4978 6.42786C19.0246 6.42786 19.5062 6.22355 20.0029 6.01925C20.319 5.89352 20.6351 5.76779 20.9812 5.68921L21.0866 5.65778L23.2991 9.71249L22.9379 10.0111C21.9596 10.8283 21.1167 11.5355 20.921 12.8871C20.6049 14.9145 21.8692 16.1403 23.1486 17.0833L23.1787 17.1147L23.269 17.319L23.2389 17.3819L21.1016 21.2794L20.9963 21.248C20.6652 21.1694 20.334 21.0437 20.018 20.918C19.5213 20.7294 19.0547 20.5408 18.5429 20.5251C18.5128 20.5251 18.4677 20.5251 18.4376 20.5251C17.2636 20.5251 16.0444 21.2323 15.4574 22.2853C15.1113 22.8982 15.021 23.5425 14.9156 24.234C14.8855 24.4698 14.8404 24.7055 14.7952 24.957L14.7651 25.0827H10.2798L10.2497 24.9884C10.1444 24.6584 10.0992 24.3126 10.0541 23.9826C10.0089 23.684 9.97882 23.3854 9.88851 23.1025C9.75305 22.5839 9.48213 22.1124 9.1209 21.7195L8.14258 23.4954C8.26299 23.8411 8.33824 24.2183 8.3834 24.5955C8.4436 25.067 8.50381 25.507 8.68442 25.8528C9.0005 26.4814 9.60254 26.7643 10.0691 26.89C10.3551 26.8586 10.6411 26.8586 10.9421 26.8586C11.4237 26.8586 11.9204 26.89 12.4021 26.9057C13.26 26.9529 14.163 27 14.9307 26.9057C15.3822 26.8429 15.9541 26.45 16.2251 26.0256C16.4358 25.6799 16.5261 25.1613 16.6164 24.6269C16.797 23.5425 17.0228 22.3167 18.4526 22.3481C18.9042 22.3638 19.3557 22.5524 19.7922 22.741C20.6501 23.1182 21.4779 23.4639 22.3358 22.5367C22.6369 21.9709 22.983 21.4052 23.3593 20.7922C23.9162 19.8807 24.5032 18.9378 24.8494 18.0734C25.1203 17.4133 25.03 16.7061 24.6387 16.1403C24.443 15.8574 24.142 15.6217 23.8259 15.3702C23.3443 14.9773 22.8476 14.5844 22.682 13.9715C22.381 12.8243 23.1335 12.1956 23.8108 11.6456Z" fill="black"/>
<path id="Vector_3" d="M9.37682 17.3976L10.2498 15.826C9.70795 15.2131 9.43703 14.3959 9.40692 13.5943C9.36177 12.0542 10.2648 10.3411 12.3419 10.2311C12.673 10.2154 12.9891 10.2468 13.2901 10.3254L14.1631 8.75383C13.561 8.53381 12.9289 8.39236 12.2666 8.42379C10.4304 8.53381 8.86508 9.64964 8.09747 11.3941C7.32986 13.1229 7.54058 15.0716 8.65437 16.5961C8.88013 16.8947 9.136 17.1619 9.39187 17.3976H9.37682Z" fill="#1E78E2"/>
<path id="Vector_4" d="M15.7737 9.75964L14.8857 11.3627C14.961 11.457 15.0513 11.5355 15.1115 11.6456C15.7436 12.6985 15.7737 14.1287 15.2018 15.2288C14.675 16.2346 13.7268 16.8004 12.5377 16.8004H12.5076C12.2969 16.8004 12.1013 16.769 11.9056 16.7375L11.0176 18.3406C11.6949 18.5606 12.4173 18.6392 13.1699 18.5291C14.9459 18.2777 16.3908 17.0833 17.038 15.3702C17.6401 13.7515 17.4143 11.9284 16.436 10.514C16.2403 10.2311 15.9995 9.99538 15.7587 9.75964H15.7737Z" fill="black"/>
</g>
<defs>
<clipPath id="clip0_615_3520">
<rect width="25" height="27" fill="white"/>
</clipPath>
</defs>
</svg>
