<svg width="22" height="20" viewBox="0 0 22 20" fill="none" xmlns="http://www.w3.org/2000/svg">
<g id="Layer_1" clip-path="url(#clip0_539_5475)">
<path id="Vector" d="M8.38183 2.51707V1.67805C8.38183 1.50244 8.5186 1.36585 8.69444 1.36585H14.0284C14.2042 1.36585 14.341 1.50244 14.341 1.67805V2.51707H15.7087V1.67805C15.7087 0.760976 14.9662 0 14.0284 0H8.69444C7.77615 0 7.01416 0.741463 7.01416 1.67805V2.51707H8.38183Z" fill="#1E78E2"/>
<g id="Group">
<path id="Vector_2" d="M4.1032 5.34638H17.9558C19.2453 5.34638 20.3004 6.40004 20.3004 7.68785V15.9415C20.3004 15.9415 20.3004 16.0586 20.3004 16.1171L21.8048 17.1317C21.922 16.761 22.0002 16.3708 22.0002 15.9415V7.70736C22.0002 5.48297 20.1831 3.66833 17.9558 3.66833H4.04459C3.38029 3.66833 2.77461 3.84394 2.22754 4.11712L4.08367 5.3659L4.1032 5.34638Z" fill="#1E78E2"/>
<path id="Vector_3" d="M18.405 18.2635C18.2682 18.283 18.1119 18.3025 17.9556 18.3025H4.0444C2.75488 18.3025 1.69982 17.2489 1.69982 15.9611V7.70739C1.69982 7.53179 1.71936 7.35618 1.75844 7.18057L0.293073 6.20496C0.0976909 6.67325 0 7.18057 0 7.70739V15.9611C0 18.1854 1.81705 20.0001 4.0444 20.0001H17.9556C18.7371 20.0001 19.46 19.7659 20.0853 19.3757L18.405 18.2635Z" fill="#353535"/>
</g>
</g>
<defs>
<clipPath id="clip0_539_5475">
<rect width="22" height="20" fill="white"/>
</clipPath>
</defs>
</svg>
