<svg width="24" height="26" viewBox="0 0 24 26" fill="none" xmlns="http://www.w3.org/2000/svg">
<g id="Layer_1" clip-path="url(#clip0_615_3509)">
<path id="Vector" d="M11.9797 11.9175C8.67423 11.9175 5.96973 9.23606 5.96973 5.95875C5.96973 2.68144 8.6542 0 11.9797 0C15.3053 0 17.9898 2.68144 17.9898 5.95875C17.9898 9.23606 15.2853 11.9175 11.9797 11.9175ZM11.9797 1.98625C9.77607 1.98625 7.97307 3.77387 7.97307 5.95875C7.97307 8.14362 9.77607 9.93124 11.9797 9.93124C14.1834 9.93124 15.9864 8.14362 15.9864 5.95875C15.9864 3.77387 14.1834 1.98625 11.9797 1.98625Z" fill="#333333"/>
<path id="Vector_2" d="M14.2439 26L10.3975 20.5974L12.0402 19.4454L14.7247 23.2392L20.8549 18.9489L21.9968 20.5776L14.2439 26Z" fill="#333333"/>
<path id="Vector_3" d="M19.9933 17.2207C17.8698 15.1749 15.0651 13.9037 11.98 13.9037C5.64942 13.9037 0.480801 19.1672 0 25.8212H2.00334C2.46411 20.2597 6.75125 15.8899 11.98 15.8899C14.3639 15.8899 16.5275 16.8433 18.2504 18.3529L19.9933 17.2009V17.2207Z" fill="#1E78E2"/>
<path id="Vector_4" d="M21.3955 23.12C21.676 23.9741 21.9164 24.8877 21.9965 25.8213H23.9998C23.8997 24.3912 23.5791 23.0405 23.0783 21.7892L21.4155 23.12H21.3955Z" fill="#1E78E2"/>
<path id="Vector_5" d="M14.2439 26L10.3975 20.5974L12.0402 19.4454L14.7247 23.2392L20.8549 18.9489L21.9968 20.5776L14.2439 26Z" fill="#333333"/>
</g>
<defs>
<clipPath id="clip0_615_3509">
<rect width="24" height="26" fill="white"/>
</clipPath>
</defs>
</svg>
